<svg width="156" height="170" viewBox="0 0 156 170" fill="none" xmlns="http://www.w3.org/2000/svg">
<rect width="156" height="170" rx="16" fill="#F7F7FC"/>
<path d="M67.8775 101.545V109.27C67.8775 110.13 67.6125 110.82 67.0825 111.34C66.5525 111.85 65.8525 112.105 64.9825 112.105C64.1025 112.105 63.3975 111.845 62.8675 111.325C62.3375 110.795 62.0725 110.075 62.0725 109.165H63.4375C63.4475 109.675 63.5775 110.09 63.8275 110.41C64.0875 110.73 64.4725 110.89 64.9825 110.89C65.4925 110.89 65.8725 110.74 66.1225 110.44C66.3725 110.13 66.4975 109.74 66.4975 109.27V101.545H67.8775ZM74.9016 112.135C74.1316 112.135 73.4316 111.96 72.8016 111.61C72.1816 111.26 71.6916 110.765 71.3316 110.125C70.9816 109.475 70.8066 108.725 70.8066 107.875C70.8066 107.035 70.9866 106.295 71.3466 105.655C71.7166 105.005 72.2166 104.51 72.8466 104.17C73.4766 103.82 74.1816 103.645 74.9616 103.645C75.7416 103.645 76.4466 103.82 77.0766 104.17C77.7066 104.51 78.2016 105 78.5616 105.64C78.9316 106.28 79.1166 107.025 79.1166 107.875C79.1166 108.725 78.9266 109.475 78.5466 110.125C78.1766 110.765 77.6716 111.26 77.0316 111.61C76.3916 111.96 75.6816 112.135 74.9016 112.135ZM74.9016 110.935C75.3916 110.935 75.8516 110.82 76.2816 110.59C76.7116 110.36 77.0566 110.015 77.3166 109.555C77.5866 109.095 77.7216 108.535 77.7216 107.875C77.7216 107.215 77.5916 106.655 77.3316 106.195C77.0716 105.735 76.7316 105.395 76.3116 105.175C75.8916 104.945 75.4366 104.83 74.9466 104.83C74.4466 104.83 73.9866 104.945 73.5666 105.175C73.1566 105.395 72.8266 105.735 72.5766 106.195C72.3266 106.655 72.2016 107.215 72.2016 107.875C72.2016 108.545 72.3216 109.11 72.5616 109.57C72.8116 110.03 73.1416 110.375 73.5516 110.605C73.9616 110.825 74.4116 110.935 74.9016 110.935ZM82.3663 102.445C82.1063 102.445 81.8863 102.355 81.7063 102.175C81.5263 101.995 81.4363 101.775 81.4363 101.515C81.4363 101.255 81.5263 101.035 81.7063 100.855C81.8863 100.675 82.1063 100.585 82.3663 100.585C82.6163 100.585 82.8263 100.675 82.9963 100.855C83.1763 101.035 83.2663 101.255 83.2663 101.515C83.2663 101.775 83.1763 101.995 82.9963 102.175C82.8263 102.355 82.6163 102.445 82.3663 102.445ZM83.0263 103.78V112H81.6613V103.78H83.0263ZM90.1078 103.63C91.1078 103.63 91.9178 103.935 92.5378 104.545C93.1578 105.145 93.4678 106.015 93.4678 107.155V112H92.1178V107.35C92.1178 106.53 91.9128 105.905 91.5028 105.475C91.0928 105.035 90.5328 104.815 89.8228 104.815C89.1028 104.815 88.5278 105.04 88.0978 105.49C87.6778 105.94 87.4678 106.595 87.4678 107.455V112H86.1028V103.78H87.4678V104.95C87.7378 104.53 88.1028 104.205 88.5628 103.975C89.0328 103.745 89.5478 103.63 90.1078 103.63Z" fill="#6E7191"/>
<path d="M76.4375 55.6249L81.1156 50.8671C83.4527 48.4902 87.2794 48.474 89.6366 50.8311L89.871 51.0656C92.2141 53.4087 92.2141 57.2077 89.871 59.5508L83.2259 66.1959C81.7051 67.7167 79.2541 67.7627 77.6773 66.3002L75.0625 63.8749" stroke="#6E7191" stroke-width="2" stroke-linecap="round" stroke-linejoin="round"/>
<path d="M78.3011 70.4922L73.6231 75.25C71.2859 77.627 67.4592 77.6432 65.1021 75.286L64.8677 75.0516C62.5245 72.7085 62.5245 68.9095 64.8677 66.5663L71.5127 59.9213C73.0335 58.4005 75.4845 58.3544 77.0613 59.817L79.6761 62.2422" stroke="#6E7191" stroke-width="2" stroke-linecap="round" stroke-linejoin="round"/>
</svg>
