<svg xmlns="http://www.w3.org/2000/svg" width="29" height="29" viewBox="0 0 29 29">
  <g id="Group_2144" data-name="Group 2144" transform="translate(-276 -228)">
    <rect id="Rectangle_1231" data-name="Rectangle 1231" width="29" height="29" rx="8" transform="translate(276 228)" fill="#0085ff" opacity="0.21"/>
    <g id="file_copy-24px_1_" data-name="file_copy-24px (1)" transform="translate(284.549 236.549)">
      <path id="Path_3818" data-name="Path 3818" d="M0,0H12.9V12.9H0Z" fill="none"/>
      <path id="Path_3819" data-name="Path 3819" d="M8.989,1H3.075A1.078,1.078,0,0,0,2,2.075V9.064a.538.538,0,0,0,1.075,0V2.613a.539.539,0,0,1,.538-.538H8.989A.538.538,0,0,0,8.989,1Zm.317,2.468,2.6,2.6a1.074,1.074,0,0,1,.312.758v4.93a1.078,1.078,0,0,1-1.075,1.075H5.22a1.074,1.074,0,0,1-1.07-1.075l.005-7.527A1.074,1.074,0,0,1,5.226,3.15H8.543A1.079,1.079,0,0,1,9.306,3.468ZM8.989,6.914h2.419L8.451,3.957V6.376A.539.539,0,0,0,8.989,6.914Z" transform="translate(-0.925 -0.462)" fill="#008dff"/>
    </g>
  </g>
</svg>
