<svg width="156" height="170" viewBox="0 0 156 170" fill="none" xmlns="http://www.w3.org/2000/svg">
<rect width="156" height="170" rx="16" fill="#EBECFE"/>
<path d="M51.0766 106.765C51.0766 105.745 51.3066 104.83 51.7666 104.02C52.2266 103.2 52.8516 102.56 53.6416 102.1C54.4416 101.64 55.3266 101.41 56.2966 101.41C57.4366 101.41 58.4316 101.685 59.2816 102.235C60.1316 102.785 60.7516 103.565 61.1416 104.575H59.5066C59.2166 103.945 58.7966 103.46 58.2466 103.12C57.7066 102.78 57.0566 102.61 56.2966 102.61C55.5666 102.61 54.9116 102.78 54.3316 103.12C53.7516 103.46 53.2966 103.945 52.9666 104.575C52.6366 105.195 52.4716 105.925 52.4716 106.765C52.4716 107.595 52.6366 108.325 52.9666 108.955C53.2966 109.575 53.7516 110.055 54.3316 110.395C54.9116 110.735 55.5666 110.905 56.2966 110.905C57.0566 110.905 57.7066 110.74 58.2466 110.41C58.7966 110.07 59.2166 109.585 59.5066 108.955H61.1416C60.7516 109.955 60.1316 110.73 59.2816 111.28C58.4316 111.82 57.4366 112.09 56.2966 112.09C55.3266 112.09 54.4416 111.865 53.6416 111.415C52.8516 110.955 52.2266 110.32 51.7666 109.51C51.3066 108.7 51.0766 107.785 51.0766 106.765ZM65.2886 105.115C65.5286 104.645 65.8686 104.28 66.3086 104.02C66.7586 103.76 67.3036 103.63 67.9436 103.63V105.04H67.5836C66.0536 105.04 65.2886 105.87 65.2886 107.53V112H63.9236V103.78H65.2886V105.115ZM77.7693 107.575C77.7693 107.835 77.7543 108.11 77.7243 108.4H71.1543C71.2043 109.21 71.4793 109.845 71.9793 110.305C72.4893 110.755 73.1043 110.98 73.8243 110.98C74.4143 110.98 74.9043 110.845 75.2943 110.575C75.6943 110.295 75.9743 109.925 76.1343 109.465H77.6043C77.3843 110.255 76.9443 110.9 76.2843 111.4C75.6243 111.89 74.8043 112.135 73.8243 112.135C73.0443 112.135 72.3443 111.96 71.7243 111.61C71.1143 111.26 70.6343 110.765 70.2843 110.125C69.9343 109.475 69.7593 108.725 69.7593 107.875C69.7593 107.025 69.9293 106.28 70.2693 105.64C70.6093 105 71.0843 104.51 71.6943 104.17C72.3143 103.82 73.0243 103.645 73.8243 103.645C74.6043 103.645 75.2943 103.815 75.8943 104.155C76.4943 104.495 76.9543 104.965 77.2743 105.565C77.6043 106.155 77.7693 106.825 77.7693 107.575ZM76.3593 107.29C76.3593 106.77 76.2443 106.325 76.0143 105.955C75.7843 105.575 75.4693 105.29 75.0693 105.1C74.6793 104.9 74.2443 104.8 73.7643 104.8C73.0743 104.8 72.4843 105.02 71.9943 105.46C71.5143 105.9 71.2393 106.51 71.1693 107.29H76.3593ZM79.811 107.86C79.811 107.02 79.981 106.285 80.321 105.655C80.661 105.015 81.126 104.52 81.716 104.17C82.316 103.82 82.981 103.645 83.711 103.645C84.431 103.645 85.056 103.8 85.586 104.11C86.116 104.42 86.511 104.81 86.771 105.28V103.78H88.151V112H86.771V110.47C86.501 110.95 86.096 111.35 85.556 111.67C85.026 111.98 84.406 112.135 83.696 112.135C82.966 112.135 82.306 111.955 81.716 111.595C81.126 111.235 80.661 110.73 80.321 110.08C79.981 109.43 79.811 108.69 79.811 107.86ZM86.771 107.875C86.771 107.255 86.646 106.715 86.396 106.255C86.146 105.795 85.806 105.445 85.376 105.205C84.956 104.955 84.491 104.83 83.981 104.83C83.471 104.83 83.006 104.95 82.586 105.19C82.166 105.43 81.831 105.78 81.581 106.24C81.331 106.7 81.206 107.24 81.206 107.86C81.206 108.49 81.331 109.04 81.581 109.51C81.831 109.97 82.166 110.325 82.586 110.575C83.006 110.815 83.471 110.935 83.981 110.935C84.491 110.935 84.956 110.815 85.376 110.575C85.806 110.325 86.146 109.97 86.396 109.51C86.646 109.04 86.771 108.495 86.771 107.875ZM92.8727 104.905V109.75C92.8727 110.15 92.9577 110.435 93.1277 110.605C93.2977 110.765 93.5927 110.845 94.0127 110.845H95.0177V112H93.7877C93.0277 112 92.4577 111.825 92.0777 111.475C91.6977 111.125 91.5077 110.55 91.5077 109.75V104.905H90.4427V103.78H91.5077V101.71H92.8727V103.78H95.0177V104.905H92.8727ZM104.922 107.575C104.922 107.835 104.907 108.11 104.877 108.4H98.3066C98.3566 109.21 98.6316 109.845 99.1316 110.305C99.6416 110.755 100.257 110.98 100.977 110.98C101.567 110.98 102.057 110.845 102.447 110.575C102.847 110.295 103.127 109.925 103.287 109.465H104.757C104.537 110.255 104.097 110.9 103.437 111.4C102.777 111.89 101.957 112.135 100.977 112.135C100.197 112.135 99.4966 111.96 98.8766 111.61C98.2666 111.26 97.7866 110.765 97.4366 110.125C97.0866 109.475 96.9116 108.725 96.9116 107.875C96.9116 107.025 97.0816 106.28 97.4216 105.64C97.7616 105 98.2366 104.51 98.8466 104.17C99.4666 103.82 100.177 103.645 100.977 103.645C101.757 103.645 102.447 103.815 103.047 104.155C103.647 104.495 104.107 104.965 104.427 105.565C104.757 106.155 104.922 106.825 104.922 107.575ZM103.512 107.29C103.512 106.77 103.397 106.325 103.167 105.955C102.937 105.575 102.622 105.29 102.222 105.1C101.832 104.9 101.397 104.8 100.917 104.8C100.227 104.8 99.6366 105.02 99.1466 105.46C98.6666 105.9 98.3916 106.51 98.3216 107.29H103.512Z" fill="#0094FF"/>
<path d="M77.5 47.125V77.875" stroke="#0094FF" stroke-width="2" stroke-linecap="round" stroke-linejoin="round"/>
<path d="M62.125 62.5H92.875" stroke="#0094FF" stroke-width="2" stroke-linecap="round" stroke-linejoin="round"/>
<circle cx="20" cy="20" r="10" fill="#0094FF"/>
<path d="M23.75 17.5L18.5938 23.125L16.25 20.5682" stroke="#FCFCFC" stroke-width="2" stroke-linecap="round" stroke-linejoin="round"/>
</svg>
