<svg width="23" height="24" viewBox="0 0 23 24" fill="none" xmlns="http://www.w3.org/2000/svg">
<path d="M1.5 9.88014C1.5 8.92659 1.95332 8.02983 2.72115 7.46442L11.5 1L20.2788 7.46443C21.0467 8.02983 21.5 8.92659 21.5 9.88014V20.5C21.5 21.8807 20.3807 23 19 23H15.5C14.9477 23 14.5 22.5523 14.5 22V16C14.5 15.7239 14.2761 15.5 14 15.5H9C8.72386 15.5 8.5 15.7239 8.5 16V22C8.5 22.5523 8.05228 23 7.5 23H4C2.61929 23 1.5 21.8807 1.5 20.5V9.88014Z" stroke="#A0A3BD" stroke-width="2" stroke-linecap="round" stroke-linejoin="round"/>
</svg>
