<svg width="238" height="280" viewBox="0 0 238 280" fill="none" xmlns="http://www.w3.org/2000/svg">
<g opacity="0.4">
<path fill-rule="evenodd" clip-rule="evenodd" d="M42.7415 10.5427C56.4374 9.24069 70.9447 13.5567 79.4545 24.3686C87.9139 35.1163 87.0357 49.7335 84.1038 63.094C81.1319 76.6363 76.0575 90.8912 63.5461 96.8607C51.0733 102.812 36.7105 98.0092 24.5031 91.531C13.0023 85.4278 2.59985 76.1545 0.35658 63.3274C-1.78181 51.1001 6.07671 40.2837 13.848 30.6056C21.5722 20.9862 30.4614 11.7102 42.7415 10.5427Z" fill="#A996FF"/>
</g>
<g opacity="0.4">
<path fill-rule="evenodd" clip-rule="evenodd" d="M140.477 88.3575C169.113 89.5695 190.845 110.946 208.668 133.378C226.428 155.729 242.391 181.704 236.901 209.712C231.243 238.573 208.516 261.213 181.378 272.591C155.869 283.286 126.242 280.588 102.778 265.947C81.9266 252.937 77.3336 227.293 70.8185 203.607C63.6958 177.713 50.7418 150.269 64.6357 127.281C80.094 101.705 110.603 87.093 140.477 88.3575Z" fill="#A996FF"/>
</g>
<path fill-rule="evenodd" clip-rule="evenodd" d="M216.457 55.2918C216.457 70.3208 204.056 82.5041 188.759 82.5041C173.461 82.5041 161.06 70.3208 161.06 55.2918C161.06 40.2628 173.461 28.0795 188.759 28.0795C204.056 28.0795 216.457 40.2628 216.457 55.2918ZM206.565 55.2918C206.565 64.6931 198.758 72.6119 188.759 72.6119C178.759 72.6119 170.953 64.6931 170.953 55.2918C170.953 45.8905 178.759 37.9717 188.759 37.9717C198.758 37.9717 206.565 45.8905 206.565 55.2918Z" fill="#0576F0"/>
<path d="M21.4584 117.788C20.2876 118.436 19.864 119.911 20.5123 121.081C21.1606 122.252 22.6352 122.676 23.806 122.027L35.0483 115.802C36.219 115.154 36.6426 113.679 35.9943 112.509L30.9431 103.386L40.0655 98.3349C41.2363 97.6867 41.6598 96.212 41.0116 95.0413L35.9603 85.9188L45.0827 80.8676C46.2535 80.2193 46.6771 78.7447 46.0288 77.5739C45.3805 76.4031 43.9059 75.9796 42.7351 76.6279L31.4928 82.8529C30.322 83.5012 29.8985 84.9758 30.5468 86.1466L35.598 95.269L26.4756 100.32C25.3048 100.969 24.8812 102.443 25.5295 103.614L30.5808 112.736L21.4584 117.788Z" fill="#AA33FF"/>
<path d="M181.286 216.532C183.185 212.755 184.136 208.573 184.055 204.346C183.994 201.128 183.337 197.958 182.125 194.994C181.495 193.452 182.007 191.622 183.466 190.817C184.925 190.012 186.775 190.538 187.439 192.067C189.105 195.901 190.008 200.033 190.088 204.231C190.187 209.438 189.016 214.591 186.676 219.243C184.337 223.896 180.898 227.908 176.659 230.933C173.241 233.373 169.385 235.111 165.314 236.06C163.691 236.438 162.166 235.267 161.942 233.615C161.718 231.964 162.882 230.462 164.496 230.048C167.597 229.254 170.534 227.891 173.154 226.022C176.595 223.566 179.386 220.309 181.286 216.532Z" fill="#AF05FA"/>
<path d="M71.077 16.3562C69.7069 17.3044 69.3648 19.1837 70.313 20.5539L84.0474 40.4007C84.9955 41.7709 86.8749 42.1129 88.245 41.1648L108.092 27.4304C109.462 26.4822 109.804 24.6029 108.856 23.2328L95.1216 3.38589C94.1734 2.01576 92.2941 1.67367 90.9239 2.62183L71.077 16.3562Z" fill="#E3026F"/>
<path fill-rule="evenodd" clip-rule="evenodd" d="M81.0431 189.23C81.0431 198.415 73.2352 205.86 63.6035 205.86C53.9718 205.86 46.1638 198.415 46.1638 189.23C46.1638 180.046 53.9718 172.601 63.6035 172.601C73.2352 172.601 81.0431 180.046 81.0431 189.23ZM74.8147 189.23C74.8147 194.976 69.8997 199.815 63.6035 199.815C57.3073 199.815 52.3923 194.976 52.3923 189.23C52.3923 183.485 57.3073 178.646 63.6035 178.646C69.8997 178.646 74.8147 183.485 74.8147 189.23Z" fill="#0576F0"/>
</svg>
